<svg width="110" height="147" viewBox="0 0 110 147" fill="none" xmlns="http://www.w3.org/2000/svg">
<g filter="url(#filter0_d_557_514)">
<path d="M13.9531 92.7617C-0.0205269 68.1679 46.9313 82.7006 40.2237 97.2333C32.9572 117.356 -12.3174 106.735 14.301 93.3207C14.1821 93.1327 14.0661 92.9462 13.9531 92.7617Z" fill="#D0F4FF" stroke="black" stroke-width="4" stroke-linecap="round"/>
<path d="M41.2353 136.692C43.7108 136.789 46.2028 134.54 46.3355 131.135C46.4683 127.729 44.1589 125.293 41.6834 125.197C39.208 125.1 36.716 127.349 36.5832 130.754C36.4505 134.16 38.7598 136.596 41.2353 136.692Z" fill="#FFEE53" stroke="black" stroke-width="4"/>
<path d="M33.4834 135.917C35.9589 136.013 38.4508 133.764 38.5836 130.359C38.7163 126.954 36.407 124.518 33.9315 124.422C31.456 124.325 28.964 126.574 28.8313 129.979C28.6985 133.384 31.0079 135.82 33.4834 135.917Z" fill="#FFEE53" stroke="black" stroke-width="4"/>
<path d="M23.504 105.488C23.504 119.365 36.2601 131.008 52.5118 131.008C68.7634 131.008 81.5195 119.365 81.5195 105.488C81.5195 91.6121 68.7634 79.969 52.5118 79.969C36.2601 79.969 23.504 91.6121 23.504 105.488Z" fill="#FFEE53" stroke="black" stroke-width="4"/>
<path d="M102.171 59.4354L102.068 59.2266L102.016 58.9998C99.5889 48.4622 93.7973 39.7025 86.839 33.5822C79.8513 27.4361 71.8403 24.0785 65.06 24.0785H64.8367L64.6189 24.0292C54.7341 21.7942 45.6858 25.5272 39.0127 32.3456C32.3117 39.1924 28.155 49.0236 28.155 58.5509C28.155 77.4698 44.5543 93.0233 65.06 93.0233C75.3616 93.0233 87.0731 88.9835 94.9624 82.6266C98.8943 79.4585 101.767 75.8042 103.122 71.9134C104.458 68.0781 104.367 63.8885 102.171 59.4354Z" fill="#FFEE53" stroke="black" stroke-width="4"/>
<ellipse cx="5.06858" cy="6.58915" rx="5.06858" ry="6.58915" transform="matrix(-1 0 0 1 91.2715 45.411)" fill="black"/>
<ellipse cx="5.81396" cy="6.58915" rx="5.81396" ry="6.58915" transform="matrix(-1 0 0 1 68.0156 52.3877)" fill="black"/>
<path d="M76.702 0.0704091C77.8031 0.158519 78.6242 1.12252 78.5361 2.22357C78.448 3.32462 77.484 4.14577 76.3829 4.05766L76.702 0.0704091ZM59.1839 22.3631C58.7853 18.5527 59.0993 12.8211 61.509 8.09111C62.7304 5.69355 64.5201 3.49884 67.0752 1.99572C69.6405 0.486646 72.8318 -0.239297 76.702 0.0704091L76.3829 4.05766C73.2057 3.80341 70.8584 4.41099 69.1034 5.44341C67.3383 6.48177 66.0259 8.0365 65.0731 9.90682C63.1344 13.7125 62.8111 18.5905 63.1622 21.947L59.1839 22.3631Z" fill="black"/>
<path d="M53.6112 1.63002C54.71 1.51674 55.6925 2.31561 55.8058 3.41436C55.9191 4.5131 55.1202 5.49564 54.0215 5.60893L53.6112 1.63002ZM40.4062 28.8528C39.2306 24.8504 38.3851 18.6622 39.8446 13.1551C40.5829 10.3695 41.9338 7.67767 44.2106 5.57058C46.503 3.4491 49.6021 2.04337 53.6112 1.63002L54.0215 5.60893C50.756 5.94561 48.5024 7.04883 46.9275 8.50633C45.337 9.97821 44.306 11.9354 43.7111 14.1799C42.5044 18.7331 43.1879 24.1297 44.244 27.7255L40.4062 28.8528Z" fill="black"/>
<path d="M48.6354 105.154C48.7732 106.56 49.5449 109.285 51.5294 108.948C52.6319 108.948 54.8369 108.021 54.8369 104.311V99.6746" stroke="black" stroke-width="4" stroke-linecap="round"/>
<path d="M65.6899 128.69C41.814 120.708 29.6434 100.527 28.8682 91.4807C25.1473 91.4807 24.7338 97.7991 24.6046 101.125C36.2326 121.38 37.3953 121.38 54.062 131.457C56.2326 131.138 64.0104 129.621 65.6899 128.69Z" fill="black" stroke="black" stroke-width="3"/>
<circle cx="1.16279" cy="1.16279" r="1.16279" transform="matrix(-1 0 0 1 89.7207 47.7365)" fill="white"/>
<circle cx="1.16279" cy="1.16279" r="1.16279" transform="matrix(-1 0 0 1 65.6899 54.7131)" fill="white"/>
<path d="M84.6821 69.4419C83.6485 70.9923 80.6511 73.6279 76.9302 71.7675" stroke="black" stroke-width="4" stroke-linecap="round"/>
</g>
<defs>
<filter id="filter0_d_557_514" x="-0.00146484" y="0.00012207" width="110.001" height="146.695" filterUnits="userSpaceOnUse" color-interpolation-filters="sRGB">
<feFlood flood-opacity="0" result="BackgroundImageFix"/>
<feColorMatrix in="SourceAlpha" type="matrix" values="0 0 0 0 0 0 0 0 0 0 0 0 0 0 0 0 0 0 127 0" result="hardAlpha"/>
<feOffset dy="4"/>
<feGaussianBlur stdDeviation="2"/>
<feComposite in2="hardAlpha" operator="out"/>
<feColorMatrix type="matrix" values="0 0 0 0 0 0 0 0 0 0 0 0 0 0 0 0 0 0 0.25 0"/>
<feBlend mode="normal" in2="BackgroundImageFix" result="effect1_dropShadow_557_514"/>
<feBlend mode="normal" in="SourceGraphic" in2="effect1_dropShadow_557_514" result="shape"/>
</filter>
</defs>
</svg>
